<svg width="2064" height="1375" xmlns="http://www.w3.org/2000/svg" xmlns:xlink="http://www.w3.org/1999/xlink" xml:space="preserve" overflow="hidden"><defs><clipPath id="clip0"><rect x="1168" y="550" width="2064" height="1375"/></clipPath></defs><g clip-path="url(#clip0)" transform="translate(-1168 -550)"><rect x="1168" y="550" width="2064" height="1375" fill="#DAE3F3"/><path d="M2828 1673C2828 1591.81 2893.81 1526 2975 1526 3056.19 1526 3122 1591.81 3122 1673 3122 1754.19 3056.19 1820 2975 1820 2893.81 1820 2828 1754.19 2828 1673Z" fill="#B4C7E7" fill-rule="evenodd"/><path d="M2644 1673C2644 1591.81 2709.81 1526 2791 1526 2872.19 1526 2938 1591.81 2938 1673 2938 1754.19 2872.19 1820 2791 1820 2709.81 1820 2644 1754.19 2644 1673Z" fill="#4472C4" fill-rule="evenodd" fill-opacity="0.701961"/></g></svg>