<svg width="922" height="196" xmlns="http://www.w3.org/2000/svg" xmlns:xlink="http://www.w3.org/1999/xlink" xml:space="preserve" overflow="hidden"><g transform="translate(-356 -32)"><path d="M0 18.9999C0 8.50655 8.28269-2.41894e-15 18.4999-4.83788e-15 28.7171-9.67576e-15 36.9998 8.50655 36.9998 18.9999L27.7498 18.9999C27.7498 13.6151 23.6085 9.24994 18.4999 9.24994 13.3913 9.24994 9.24991 13.6151 9.24991 18.9999Z" stroke="#FFFFFF" stroke-width="4.58333" stroke-miterlimit="8" fill="#FFFFFF" fill-rule="evenodd" transform="matrix(1 0 0 -1 1174.5 221.5)"/><path d="M1192.49 38.9998C1202.84 38.9998 1211.23 47.4055 1211.23 57.7748L1210.54 61.1903 1224.91 66.8397C1242.95 77.8212 1255 97.6947 1255 120.388L1255 165.727 1265 183 1255 183 1255 183 1130 183 1130 183 1120 183 1130 165.727 1130 120.388C1130 97.6947 1142.05 77.8212 1160.09 66.8397L1174.44 61.1966 1173.75 57.7748C1173.75 47.4055 1182.14 38.9998 1192.49 38.9998Z" stroke="#FFFFFF" stroke-width="13.75" stroke-miterlimit="8" fill="none" fill-rule="evenodd"/><path d="M843 51.8334C843 44.7456 848.746 38.9998 855.833 38.9998L908.166 38.9998C915.254 38.9998 921 44.7456 921 51.8334L921 103.166C921 110.254 915.254 116 908.166 116L855.833 116C848.746 116 843 110.254 843 103.166Z" stroke="#FFFFFF" stroke-width="13.75" stroke-miterlimit="8" fill="none" fill-rule="evenodd"/><path d="M947 51.8334C947 44.7456 952.746 38.9998 959.834 38.9998L1012.17 38.9998C1019.25 38.9998 1025 44.7456 1025 51.8334L1025 103.166C1025 110.254 1019.25 116 1012.17 116L959.834 116C952.746 116 947 110.254 947 103.166Z" stroke="#FFFFFF" stroke-width="13.75" stroke-miterlimit="8" fill="none" fill-rule="evenodd"/><path d="M843 156C843 148.82 848.82 143 856 143L908 143C915.18 143 921 148.82 921 156L921 208C921 215.18 915.18 221 908 221L856 221C848.82 221 843 215.18 843 208Z" stroke="#FFFFFF" stroke-width="13.75" stroke-miterlimit="8" fill="none" fill-rule="evenodd"/><path d="M947 156C947 148.82 952.82 143 960 143L1012 143C1019.18 143 1025 148.82 1025 156L1025 208C1025 215.18 1019.18 221 1012 221L960 221C952.82 221 947 215.18 947 208Z" stroke="#FFFFFF" stroke-width="13.75" stroke-miterlimit="8" fill="none" fill-rule="evenodd"/><path d="M412.5 71.0002C435.42 71.0002 454 84.2077 454 100.5" stroke="#FFFFFF" stroke-width="13.75" stroke-miterlimit="8" fill="none" fill-rule="evenodd"/><path d="M414.5 130C442.943 130 466 142.984 466 159" stroke="#FFFFFF" stroke-width="13.75" stroke-miterlimit="8" fill="none" fill-rule="evenodd"/><path d="M41.5001 0C64.42-5.28352e-15 83.0002 13.2076 83.0002 29.4999" stroke="#FFFFFF" stroke-width="13.75" stroke-miterlimit="8" fill="none" fill-rule="evenodd" transform="matrix(-1 0 0 1 454 71.0002)"/><path d="M412.5 130C389.58 130 371 116.792 371 100.5" stroke="#FFFFFF" stroke-width="13.75" stroke-miterlimit="8" fill="none" fill-rule="evenodd"/><path d="M414.5 188C386.057 188 363 175.016 363 159" stroke="#FFFFFF" stroke-width="13.75" stroke-miterlimit="8" fill="none" fill-rule="evenodd"/><path d="M51.5001 0C79.9428-3.27832e-15 103 12.9838 103 29.0001" stroke="#FFFFFF" stroke-width="13.75" stroke-miterlimit="8" fill="none" fill-rule="evenodd" transform="matrix(1 0 0 -1 363 188)"/><path d="M414 38.9998 414 220.89" stroke="#FFFFFF" stroke-width="13.75" stroke-miterlimit="8" fill="none" fill-rule="evenodd"/><g><g><g><path d="M887.038 41.8215C887.038 31.5086 895.398 23.1483 905.711 23.1483L1036.88 23.1483C1047.2 23.1483 1055.56 31.5086 1055.56 41.8215L1055.56 116.512C1055.56 126.825 1047.2 135.185 1036.88 135.185L905.711 135.185C895.398 135.185 887.038 126.825 887.038 116.512Z" stroke="#FFFFFF" stroke-width="13.9601" stroke-miterlimit="8" fill="none" fill-rule="evenodd" transform="matrix(1.00286 0 0 1 -300.071 50.3333)"/><path d="M887.038 61.1112 1055.45 61.1115" stroke="#FFFFFF" stroke-width="13.9601" stroke-miterlimit="8" fill="none" fill-rule="evenodd" transform="matrix(1.00286 0 0 1 -300.071 50.3333)"/></g></g></g></g></svg>