<svg width="929" height="196" xmlns="http://www.w3.org/2000/svg" xmlns:xlink="http://www.w3.org/1999/xlink" xml:space="preserve" overflow="hidden"><g transform="translate(-323 -233)"><path d="M0 18.5001C-2.41896e-15 8.28276 8.50663-7.25689e-15 19.0001-9.67586e-15 29.4935-1.20948e-14 38.0002 8.28276 38.0002 18.5001L28.7501 18.5001C28.7501 13.3914 24.3849 9.25003 19.0001 9.25003 13.6153 9.25003 9.25003 13.3914 9.25003 18.5001Z" stroke="#009DBF" stroke-width="4.58333" stroke-miterlimit="8" fill="#009DBF" fill-rule="evenodd" transform="matrix(1 0 0 -1 913.5 422.5)"/><path d="M931.991 240C942.413 240 950.862 248.464 950.862 258.905L950.169 262.345 964.632 268.033C982.797 279.091 994.931 299.102 994.931 321.953L994.931 367.607 1005 385 994.931 385 994.931 385 869.069 385 869.069 385 859 385 869.069 367.607 869.069 321.953C869.069 299.102 881.203 279.091 899.368 268.033L913.815 262.351 913.121 258.905C913.121 248.464 921.569 240 931.991 240Z" stroke="#009DBF" stroke-width="13.75" stroke-miterlimit="8" fill="none" fill-rule="evenodd"/><path d="M582 253C582 245.82 587.82 240 595 240L647 240C654.18 240 660 245.82 660 253L660 305C660 312.18 654.18 318 647 318L595 318C587.82 318 582 312.18 582 305Z" stroke="#009DBF" stroke-width="13.75" stroke-miterlimit="8" fill="none" fill-rule="evenodd"/><path d="M686 253C686 245.82 691.821 240 699 240L751 240C758.18 240 764 245.82 764 253L764 305C764 312.18 758.18 318 751 318L699 318C691.821 318 686 312.18 686 305Z" stroke="#009DBF" stroke-width="13.75" stroke-miterlimit="8" fill="none" fill-rule="evenodd"/><path d="M582 357.834C582 350.746 587.746 345 594.833 345L647.166 345C654.254 345 660 350.746 660 357.834L660 409.167C660 416.254 654.254 422 647.166 422L594.833 422C587.746 422 582 416.254 582 409.167Z" stroke="#009DBF" stroke-width="13.75" stroke-miterlimit="8" fill="none" fill-rule="evenodd"/><path d="M686 357.834C686 350.746 691.746 345 698.834 345L751.167 345C758.254 345 764 350.746 764 357.834L764 409.167C764 416.254 758.254 422 751.167 422L698.834 422C691.746 422 686 416.254 686 409.167Z" stroke="#009DBF" stroke-width="13.75" stroke-miterlimit="8" fill="none" fill-rule="evenodd"/><path d="M1192 273C1215.2 273 1234 285.984 1234 302" stroke="#009DBF" stroke-width="13.75" stroke-miterlimit="8" fill="none" fill-rule="evenodd"/><path d="M1193.5 331C1221.94 331 1245 344.208 1245 360.5" stroke="#009DBF" stroke-width="13.75" stroke-miterlimit="8" fill="none" fill-rule="evenodd"/><path d="M42.0001 0C65.1961-1.06944e-14 84.0002 12.9838 84.0002 29" stroke="#009DBF" stroke-width="13.75" stroke-miterlimit="8" fill="none" fill-rule="evenodd" transform="matrix(-1 0 0 1 1234 273)"/><path d="M1192 331C1168.8 331 1150 318.016 1150 302" stroke="#009DBF" stroke-width="13.75" stroke-miterlimit="8" fill="none" fill-rule="evenodd"/><path d="M1193.5 390C1165.06 390 1142 376.793 1142 360.5" stroke="#009DBF" stroke-width="13.75" stroke-miterlimit="8" fill="none" fill-rule="evenodd"/><path d="M51.5001 0C79.9428-6.55665e-15 103 13.2077 103 29.5001" stroke="#009DBF" stroke-width="13.75" stroke-miterlimit="8" fill="none" fill-rule="evenodd" transform="matrix(1 0 0 -1 1142 390)"/><path d="M1193 240 1193 421.89" stroke="#009DBF" stroke-width="13.75" stroke-miterlimit="8" fill="none" fill-rule="evenodd"/><g><g><g><path d="M884.683 41.7105C884.683 31.4249 893.021 23.0868 903.306 23.0868L1034.13 23.0868C1044.42 23.0868 1052.75 31.4249 1052.75 41.7105L1052.75 116.203C1052.75 126.488 1044.42 134.826 1034.13 134.826L903.306 134.826C893.021 134.826 884.683 126.488 884.683 116.203Z" stroke="#009DBF" stroke-width="13.923" stroke-miterlimit="8" fill="none" fill-rule="evenodd" transform="matrix(1 0 0 1.00266 -555.218 252.334)"/><path d="M884.683 60.9489 1052.65 60.9493" stroke="#009DBF" stroke-width="13.923" stroke-miterlimit="8" fill="none" fill-rule="evenodd" transform="matrix(1 0 0 1.00266 -555.218 252.334)"/></g></g></g></g></svg>