<svg width="929" height="196" xmlns="http://www.w3.org/2000/svg" xmlns:xlink="http://www.w3.org/1999/xlink" xml:space="preserve" overflow="hidden"><g transform="translate(-323 -6)"><path d="M0 19.0001C-2.41896e-15 8.50663 8.50663-2.41896e-15 19.0001-4.83793e-15 29.4935-9.67586e-15 38.0002 8.50663 38.0002 19.0001L28.5001 19.0001C28.5001 13.7534 24.2468 9.50004 19.0001 9.50004 13.7534 9.50004 9.50004 13.7534 9.50004 19.0001Z" stroke="#FFFFFF" stroke-width="4.58333" stroke-miterlimit="8" fill="#FFFFFF" fill-rule="evenodd" transform="matrix(1 0 0 -1 913.5 195.5)"/><path d="M931.991 13.0001C942.413 13.0001 950.862 21.4058 950.862 31.7751L950.169 35.1906 964.632 40.8399C982.797 51.8215 994.931 71.695 994.931 94.3878L994.931 139.727 1005 157 994.931 157 994.931 157 869.069 157 869.069 157 859 157 869.069 139.727 869.069 94.3878C869.069 71.695 881.203 51.8215 899.368 40.8399L913.815 35.1968 913.121 31.7751C913.121 21.4058 921.569 13.0001 931.991 13.0001Z" stroke="#FFFFFF" stroke-width="13.75" stroke-miterlimit="8" fill="none" fill-rule="evenodd"/><path d="M582 26.0003C582 18.8205 587.82 13.0001 595 13.0001L647 13.0001C654.18 13.0001 660 18.8205 660 26.0003L660 77.9998C660 85.1797 654.18 91.0001 647 91.0001L595 91.0001C587.82 91.0001 582 85.1797 582 77.9998Z" stroke="#FFFFFF" stroke-width="13.75" stroke-miterlimit="8" fill="none" fill-rule="evenodd"/><path d="M686 26.0003C686 18.8205 691.821 13.0001 699 13.0001L751 13.0001C758.18 13.0001 764 18.8205 764 26.0003L764 77.9998C764 85.1797 758.18 91.0001 751 91.0001L699 91.0001C691.821 91.0001 686 85.1797 686 77.9998Z" stroke="#FFFFFF" stroke-width="13.75" stroke-miterlimit="8" fill="none" fill-rule="evenodd"/><path d="M582 130C582 122.82 587.82 117 595 117L647 117C654.18 117 660 122.82 660 130L660 182C660 189.179 654.18 195 647 195L595 195C587.82 195 582 189.179 582 182Z" stroke="#FFFFFF" stroke-width="13.75" stroke-miterlimit="8" fill="none" fill-rule="evenodd"/><path d="M686 130C686 122.82 691.821 117 699 117L751 117C758.18 117 764 122.82 764 130L764 182C764 189.179 758.18 195 751 195L699 195C691.821 195 686 189.179 686 182Z" stroke="#FFFFFF" stroke-width="13.75" stroke-miterlimit="8" fill="none" fill-rule="evenodd"/><path d="M1192 45C1215.2 45 1234 58.2077 1234 74.5001" stroke="#FFFFFF" stroke-width="13.75" stroke-miterlimit="8" fill="none" fill-rule="evenodd"/><path d="M1193.5 104C1221.94 104 1245 116.984 1245 133" stroke="#FFFFFF" stroke-width="13.75" stroke-miterlimit="8" fill="none" fill-rule="evenodd"/><path d="M42.0001 0C65.1961-1.06944e-14 84.0002 13.2076 84.0002 29.5001" stroke="#FFFFFF" stroke-width="13.75" stroke-miterlimit="8" fill="none" fill-rule="evenodd" transform="matrix(-1 0 0 1 1234 45)"/><path d="M1192 104C1168.8 104 1150 90.7925 1150 74.5001" stroke="#FFFFFF" stroke-width="13.75" stroke-miterlimit="8" fill="none" fill-rule="evenodd"/><path d="M1193.5 162C1165.06 162 1142 149.016 1142 133" stroke="#FFFFFF" stroke-width="13.75" stroke-miterlimit="8" fill="none" fill-rule="evenodd"/><path d="M51.5001 0C79.9428-6.55666e-15 103 12.9837 103 28.9999" stroke="#FFFFFF" stroke-width="13.75" stroke-miterlimit="8" fill="none" fill-rule="evenodd" transform="matrix(1 0 0 -1 1142 162)"/><path d="M1193 13.0001 1193 194.89" stroke="#FFFFFF" stroke-width="13.75" stroke-miterlimit="8" fill="none" fill-rule="evenodd"/><g><g><g><path d="M884.683 41.7105C884.683 31.4249 893.021 23.0868 903.306 23.0868L1034.13 23.0868C1044.42 23.0868 1052.75 31.4249 1052.75 41.7105L1052.75 116.203C1052.75 126.488 1044.42 134.826 1034.13 134.826L903.306 134.826C893.021 134.826 884.683 126.488 884.683 116.203Z" stroke="#FFFFFF" stroke-width="13.923" stroke-miterlimit="8" fill="none" fill-rule="evenodd" transform="matrix(1 0 0 1.01068 -555.218 24.1999)"/><path d="M884.683 60.9489 1052.65 60.9493" stroke="#FFFFFF" stroke-width="13.923" stroke-miterlimit="8" fill="none" fill-rule="evenodd" transform="matrix(1 0 0 1.01068 -555.218 24.1999)"/></g></g></g></g></svg>