<svg width="235" height="926" xmlns="http://www.w3.org/2000/svg" xmlns:xlink="http://www.w3.org/1999/xlink" xml:space="preserve" overflow="hidden"><g transform="translate(-311 -587)"><g><g><g><path d="M887.035 41.8214C887.035 31.5085 895.396 23.1482 905.709 23.1482L1036.88 23.1482C1047.19 23.1482 1055.55 31.5085 1055.55 41.8214L1055.55 116.512C1055.55 126.825 1047.19 135.185 1036.88 135.185L905.709 135.185C895.396 135.185 887.035 126.825 887.035 116.512Z" stroke="#009DBF" stroke-width="13.9601" stroke-miterlimit="8" fill="none" fill-rule="evenodd" transform="matrix(1.00286 0 0 1 -562.071 570.333)"/><path d="M887.035 61.111 1055.45 61.1114" stroke="#009DBF" stroke-width="13.9601" stroke-miterlimit="8" fill="none" fill-rule="evenodd" transform="matrix(1.00286 0 0 1 -562.071 570.333)"/></g></g></g><path d="M400 1506C362.997 1506 333 1503.5 333 1500.42L333 1355.58C333 1352.5 362.997 1350 400 1350" stroke="#009DBF" stroke-width="13.75" stroke-miterlimit="8" fill="none" fill-rule="evenodd"/><path d="M377 1421.12 477.636 1421.13 477.636 1434.88 377 1434.87ZM440.788 1388.34 488.375 1428 440.788 1467.66C437.871 1470.09 433.535 1469.69 431.105 1466.78 428.674 1463.86 429.068 1459.52 431.985 1457.09L473.235 1422.72 473.235 1433.28 431.985 1398.91C429.068 1396.48 428.674 1392.14 431.105 1389.22 433.536 1386.31 437.871 1385.91 440.788 1388.34Z" fill="#009DBF"/><path d="M411 1130.48C390.277 1130.48 373.478 1147.28 373.478 1168 373.478 1188.72 390.277 1205.52 411 1205.52 431.722 1205.52 448.521 1188.72 448.521 1168 448.521 1147.28 431.722 1130.48 411 1130.48ZM389.202 1077 389.266 1077.33C390.411 1080.15 392.128 1082.8 394.418 1085.09 403.576 1094.25 418.424 1094.25 427.582 1085.09 429.872 1082.8 431.589 1080.15 432.734 1077.33L432.798 1077 447.513 1081.57 459.899 1088.29 459.745 1088.52C458.558 1091.32 457.902 1094.41 457.902 1097.65 457.902 1110.6 468.401 1121.1 481.353 1121.1 484.591 1121.1 487.676 1120.44 490.481 1119.26L490.709 1119.1 497.432 1131.49 502 1146.2 501.669 1146.27C498.846 1147.41 496.201 1149.13 493.912 1151.42 484.754 1160.58 484.754 1175.42 493.912 1184.58 496.201 1186.87 498.846 1188.59 501.669 1189.73L502 1189.8 497.432 1204.51 490.709 1216.9 490.481 1216.74C487.676 1215.56 484.591 1214.9 481.353 1214.9 468.401 1214.9 457.902 1225.4 457.902 1238.35 457.902 1241.59 458.558 1244.68 459.745 1247.48L459.899 1247.71 447.513 1254.43 432.798 1259 432.734 1258.67C431.589 1255.85 429.872 1253.2 427.582 1250.91 418.424 1241.75 403.576 1241.75 394.418 1250.91 392.128 1253.2 390.411 1255.85 389.266 1258.67L389.202 1259 374.487 1254.43 362.101 1247.71 362.255 1247.48C363.442 1244.68 364.098 1241.59 364.098 1238.35 364.098 1225.4 353.599 1214.9 340.647 1214.9 337.409 1214.9 334.325 1215.56 331.519 1216.74L331.291 1216.9 324.568 1204.51 320 1189.8 320.331 1189.73C323.154 1188.59 325.799 1186.87 328.088 1184.58 337.247 1175.42 337.247 1160.58 328.088 1151.42 325.799 1149.13 323.154 1147.41 320.331 1146.27L320 1146.2 324.568 1131.49 331.291 1119.1 331.519 1119.26C334.325 1120.44 337.409 1121.1 340.647 1121.1 353.599 1121.1 364.098 1110.6 364.098 1097.65 364.098 1094.41 363.442 1091.32 362.255 1088.52L362.101 1088.29 374.487 1081.57Z" stroke="#009DBF" stroke-width="13.75" stroke-miterlimit="8" fill="none" fill-rule="evenodd"/><path d="M0 18.9999C-2.41894e-15 8.50655 8.50655-2.41894e-15 18.9999-4.83788e-15 29.4933-9.67576e-15 37.9998 8.50655 37.9998 18.9999L28.4999 18.9999C28.4999 13.7532 24.2466 9.49995 18.9999 9.49995 13.7532 9.49995 9.49995 13.7532 9.49995 18.9999Z" stroke="#009DBF" stroke-width="4.58333" stroke-miterlimit="8" fill="#009DBF" fill-rule="evenodd" transform="matrix(1 0 0 -1 393.5 1001.5)"/><path d="M411.991 819C422.413 819 430.862 827.406 430.862 837.775L430.169 841.191 444.632 846.84C462.797 857.821 474.931 877.695 474.931 900.388L474.931 945.727 485 963 474.931 963 474.931 963 349.069 963 349.069 963 339 963 349.069 945.727 349.069 900.388C349.069 877.695 361.203 857.821 379.368 846.84L393.815 841.197 393.121 837.775C393.121 827.406 401.569 819 411.991 819Z" stroke="#009DBF" stroke-width="13.75" stroke-miterlimit="8" fill="none" fill-rule="evenodd"/></g></svg>