<svg width="236" height="926" xmlns="http://www.w3.org/2000/svg" xmlns:xlink="http://www.w3.org/1999/xlink" xml:space="preserve" overflow="hidden"><g transform="translate(-572 -587)"><g><g><g><path d="M887.035 41.8214C887.035 31.5085 895.396 23.1482 905.709 23.1482L1036.88 23.1482C1047.19 23.1482 1055.55 31.5085 1055.55 41.8214L1055.55 116.512C1055.55 126.825 1047.19 135.185 1036.88 135.185L905.709 135.185C895.396 135.185 887.035 126.825 887.035 116.512Z" stroke="#808080" stroke-width="13.9601" stroke-miterlimit="8" fill="none" fill-rule="evenodd" transform="matrix(1.00286 0 0 1 -300.071 570.333)"/><path d="M887.035 61.111 1055.45 61.1114" stroke="#808080" stroke-width="13.9601" stroke-miterlimit="8" fill="none" fill-rule="evenodd" transform="matrix(1.00286 0 0 1 -300.071 570.333)"/></g></g></g><path d="M661 1506C623.997 1506 594 1503.5 594 1500.42L594 1355.58C594 1352.5 623.997 1350 661 1350" stroke="#808080" stroke-width="13.75" stroke-miterlimit="8" fill="none" fill-rule="evenodd"/><path d="M639 1421.12 739.636 1421.13 739.636 1434.88 639 1434.87ZM702.788 1388.34 750.375 1428 702.787 1467.66C699.871 1470.09 695.535 1469.69 693.105 1466.78 690.674 1463.86 691.068 1459.52 693.985 1457.09L735.235 1422.72 735.235 1433.28 693.985 1398.91C691.068 1396.48 690.674 1392.14 693.105 1389.22 695.536 1386.31 699.871 1385.91 702.788 1388.34Z" fill="#808080"/><path d="M672 1130.48C651.277 1130.48 634.478 1147.28 634.478 1168 634.478 1188.72 651.277 1205.52 672 1205.52 692.723 1205.52 709.522 1188.72 709.522 1168 709.522 1147.28 692.723 1130.48 672 1130.48ZM650.202 1077 650.266 1077.33C651.411 1080.15 653.128 1082.8 655.418 1085.09 664.576 1094.25 679.424 1094.25 688.583 1085.09 690.872 1082.8 692.589 1080.15 693.734 1077.33L693.798 1077 708.513 1081.57 720.899 1088.29 720.745 1088.52C719.558 1091.32 718.902 1094.41 718.902 1097.65 718.902 1110.6 729.402 1121.1 742.353 1121.1 745.591 1121.1 748.676 1120.44 751.481 1119.26L751.71 1119.1 758.433 1131.49 763 1146.2 762.67 1146.27C759.847 1147.41 757.201 1149.13 754.912 1151.42 745.754 1160.58 745.754 1175.42 754.912 1184.58 757.201 1186.87 759.847 1188.59 762.67 1189.73L763 1189.8 758.433 1204.51 751.71 1216.9 751.481 1216.74C748.676 1215.56 745.591 1214.9 742.353 1214.9 729.402 1214.9 718.902 1225.4 718.902 1238.35 718.902 1241.59 719.558 1244.68 720.745 1247.48L720.899 1247.71 708.513 1254.43 693.798 1259 693.734 1258.67C692.589 1255.85 690.872 1253.2 688.583 1250.91 679.424 1241.75 664.576 1241.75 655.418 1250.91 653.128 1253.2 651.411 1255.85 650.266 1258.67L650.202 1259 635.487 1254.43 623.101 1247.71 623.255 1247.48C624.442 1244.68 625.098 1241.59 625.098 1238.35 625.098 1225.4 614.599 1214.9 601.647 1214.9 598.409 1214.9 595.325 1215.56 592.519 1216.74L592.291 1216.9 585.568 1204.51 581 1189.8 581.331 1189.73C584.154 1188.59 586.799 1186.87 589.088 1184.58 598.246 1175.42 598.246 1160.58 589.088 1151.42 586.799 1149.13 584.154 1147.41 581.331 1146.27L581 1146.2 585.568 1131.49 592.291 1119.1 592.519 1119.26C595.325 1120.44 598.409 1121.1 601.647 1121.1 614.599 1121.1 625.098 1110.6 625.098 1097.65 625.098 1094.41 624.442 1091.32 623.255 1088.52L623.101 1088.29 635.487 1081.57Z" stroke="#808080" stroke-width="13.75" stroke-miterlimit="8" fill="none" fill-rule="evenodd"/><path d="M0 18.5001C-2.35531e-15 8.28276 8.28276-2.35531e-15 18.5001-4.71061e-15 28.7174-9.42122e-15 37.0001 8.28276 37.0001 18.5001L27.7501 18.5001C27.7501 13.3914 23.6087 9.25003 18.5001 9.25003 13.3914 9.25003 9.25003 13.3914 9.25003 18.5001Z" stroke="#808080" stroke-width="4.58333" stroke-miterlimit="8" fill="#808080" fill-rule="evenodd" transform="matrix(1 0 0 -1 655.5 1000.5)"/><path d="M673.491 819C683.842 819 692.233 827.406 692.233 837.775L691.544 841.191 705.909 846.84C723.949 857.821 736 877.695 736 900.388L736 945.727 746 963 736 963 736 963 611 963 611 963 601 963 611 945.727 611 900.388C611 877.695 623.051 857.821 641.092 846.84L655.439 841.197 654.75 837.775C654.75 827.406 663.141 819 673.491 819Z" stroke="#808080" stroke-width="13.75" stroke-miterlimit="8" fill="none" fill-rule="evenodd"/></g></svg>