<svg width="170" height="196" xmlns="http://www.w3.org/2000/svg" xmlns:xlink="http://www.w3.org/1999/xlink" xml:space="preserve" overflow="hidden"><g transform="translate(-3239 -25)"><path d="M3246 127.334C3246 117.761 3253.76 110 3263.33 110L3384.67 110C3394.24 110 3402 117.761 3402 127.334L3402 196.667C3402 206.24 3394.24 214 3384.67 214L3263.33 214C3253.76 214 3246 206.24 3246 196.667Z" stroke="#808080" stroke-width="13.75" stroke-miterlimit="8" fill="none" fill-rule="evenodd"/><path d="M3272 110 3272 71.0002C3272 49.4611 3295.28 32.0002 3324 32.0002 3352.72 32.0002 3376 49.4611 3376 71.0002L3376 110Z" stroke="#808080" stroke-width="13.75" stroke-miterlimit="8" fill="none" fill-rule="evenodd"/><path d="M3324.5 136C3331.4 136 3337 141.704 3337 148.739 3337 154.016 3333.85 158.544 3329.37 160.477L3328.16 160.726 3337 188 3312 188 3320.84 160.726 3319.63 160.477C3315.15 158.544 3312 154.016 3312 148.739 3312 141.704 3317.6 136 3324.5 136Z" stroke="#808080" stroke-width="13.75" stroke-miterlimit="8" fill="none" fill-rule="evenodd"/></g></svg>