<svg width="196" height="711" xmlns="http://www.w3.org/2000/svg" xmlns:xlink="http://www.w3.org/1999/xlink" xml:space="preserve" overflow="hidden"><g transform="translate(-836 -552)"><path d="M0 19.0001C-2.41896e-15 8.50663 8.50663-2.41896e-15 19.0001-4.83793e-15 29.4935-9.67586e-15 38.0002 8.50663 38.0002 19.0001L28.5001 19.0001C28.5001 13.7534 24.2468 9.50004 19.0001 9.50004 13.7534 9.50004 9.50004 13.7534 9.50004 19.0001Z" stroke="#808080" stroke-width="4.58333" stroke-miterlimit="8" fill="#808080" fill-rule="evenodd" transform="matrix(1 0 0 -1 915.5 1260.5)"/><path d="M933.991 1078C944.413 1078 952.862 1086.41 952.862 1096.78L952.169 1100.19 966.632 1105.84C984.797 1116.82 996.931 1136.69 996.931 1159.39L996.931 1204.73 1007 1222 996.931 1222 996.931 1222 871.069 1222 871.069 1222 861 1222 871.069 1204.73 871.069 1159.39C871.069 1136.69 883.203 1116.82 901.368 1105.84L915.815 1100.2 915.121 1096.78C915.121 1086.41 923.569 1078 933.991 1078Z" stroke="#808080" stroke-width="13.75" stroke-miterlimit="8" fill="none" fill-rule="evenodd"/><path d="M843 867.834C843 856.328 852.328 847 863.834 847L1003.17 847C1014.67 847 1024 856.328 1024 867.834L1024 951.166C1024 962.672 1014.67 972 1003.17 972L863.834 972C852.328 972 843 962.672 843 951.166Z" stroke="#808080" stroke-width="13.75" stroke-miterlimit="8" fill="none" fill-rule="evenodd"/><path d="M863.686 847 1003.31 847C1014.74 847 1024 856.253 1024 867.667L1024 878 933.5 909 843 878 843 867.667C843 856.253 852.261 847 863.686 847Z" stroke="#808080" stroke-width="13.75" stroke-miterlimit="8" fill="none" fill-rule="evenodd"/><path d="M843 650C843 599.742 883.742 559 934 559 984.258 559 1025 599.742 1025 650 1025 700.258 984.258 741 934 741 883.742 741 843 700.258 843 650Z" stroke="#808080" stroke-width="13.75" stroke-miterlimit="8" fill="none" fill-rule="evenodd"/><path d="M899 622.5C899 602.894 914.67 587 934 587 953.33 587 969 602.894 969 622.5 969 642.106 953.33 658 934 658 914.67 658 899 642.106 899 622.5Z" stroke="#808080" stroke-width="13.75" stroke-miterlimit="8" fill="none" fill-rule="evenodd"/><path d="M893.76 679 974.24 679C980.734 679 986 684.268 986 690.767L986 724.525 984.879 725.45C970.355 735.268 952.847 741 934 741 915.153 741 897.645 735.268 883.121 725.45L882 724.525 882 690.767C882 684.268 887.265 679 893.76 679Z" stroke="#808080" stroke-width="13.75" stroke-miterlimit="8" fill="none" fill-rule="evenodd"/></g></svg>