<svg width="939" height="1222" xmlns="http://www.w3.org/2000/svg" xmlns:xlink="http://www.w3.org/1999/xlink" xml:space="preserve" overflow="hidden"><g transform="translate(-314 -32)"><path d="M0 19.0001C-2.41896e-15 8.50663 8.50663-2.41896e-15 19.0001-4.83793e-15 29.4935-9.67586e-15 38.0002 8.50663 38.0002 19.0001L28.5001 19.0001C28.5001 13.7534 24.2468 9.50004 19.0001 9.50004 13.7534 9.50004 9.50004 13.7534 9.50004 19.0001Z" stroke="#FFFFFF" stroke-width="4.58333" stroke-miterlimit="8" fill="#FFFFFF" fill-rule="evenodd" transform="matrix(1 0 0 -1 913.5 221.5)"/><path d="M931.991 38.9998C942.413 38.9998 950.862 47.4055 950.862 57.7748L950.169 61.1903 964.632 66.8397C982.797 77.8212 994.931 97.6947 994.931 120.388L994.931 165.727 1005 183 994.931 183 994.931 183 869.069 183 869.069 183 859 183 869.069 165.727 869.069 120.388C869.069 97.6947 881.203 77.8212 899.368 66.8397L913.815 61.1966 913.121 57.7748C913.121 47.4055 921.569 38.9998 931.991 38.9998Z" stroke="#FFFFFF" stroke-width="13.75" stroke-miterlimit="8" fill="none" fill-rule="evenodd"/><path d="M582 52.0001C582 44.8203 587.82 38.9998 595 38.9998L647 38.9998C654.18 38.9998 660 44.8203 660 52.0001L660 104C660 111.179 654.18 117 647 117L595 117C587.82 117 582 111.179 582 104Z" stroke="#FFFFFF" stroke-width="13.75" stroke-miterlimit="8" fill="none" fill-rule="evenodd"/><path d="M686 52.0001C686 44.8203 691.821 38.9998 699 38.9998L751 38.9998C758.18 38.9998 764 44.8203 764 52.0001L764 104C764 111.179 758.18 117 751 117L699 117C691.821 117 686 111.179 686 104Z" stroke="#FFFFFF" stroke-width="13.75" stroke-miterlimit="8" fill="none" fill-rule="evenodd"/><path d="M582 156C582 148.82 587.82 143 595 143L647 143C654.18 143 660 148.82 660 156L660 208C660 215.18 654.18 221 647 221L595 221C587.82 221 582 215.18 582 208Z" stroke="#FFFFFF" stroke-width="13.75" stroke-miterlimit="8" fill="none" fill-rule="evenodd"/><path d="M686 156C686 148.82 691.821 143 699 143L751 143C758.18 143 764 148.82 764 156L764 208C764 215.18 758.18 221 751 221L699 221C691.821 221 686 215.18 686 208Z" stroke="#FFFFFF" stroke-width="13.75" stroke-miterlimit="8" fill="none" fill-rule="evenodd"/><path d="M1192 71.0002C1215.2 71.0002 1234 84.2077 1234 100.5" stroke="#FFFFFF" stroke-width="13.75" stroke-miterlimit="8" fill="none" fill-rule="evenodd"/><path d="M1193.5 130C1221.94 130 1245 142.984 1245 159" stroke="#FFFFFF" stroke-width="13.75" stroke-miterlimit="8" fill="none" fill-rule="evenodd"/><path d="M42.0001 0C65.1961-5.34718e-15 84.0002 13.2075 84.0002 29.4999" stroke="#FFFFFF" stroke-width="13.75" stroke-miterlimit="8" fill="none" fill-rule="evenodd" transform="matrix(-1 0 0 1 1234 71.0002)"/><path d="M1192 130C1168.8 130 1150 116.792 1150 100.5" stroke="#FFFFFF" stroke-width="13.75" stroke-miterlimit="8" fill="none" fill-rule="evenodd"/><path d="M1193.5 188C1165.06 188 1142 175.016 1142 159" stroke="#FFFFFF" stroke-width="13.75" stroke-miterlimit="8" fill="none" fill-rule="evenodd"/><path d="M51.5001 0C79.9428-3.27832e-15 103 12.9838 103 29.0001" stroke="#FFFFFF" stroke-width="13.75" stroke-miterlimit="8" fill="none" fill-rule="evenodd" transform="matrix(1 0 0 -1 1142 188)"/><path d="M1193 38.9998 1193 220.89" stroke="#FFFFFF" stroke-width="13.75" stroke-miterlimit="8" fill="none" fill-rule="evenodd"/><g><g><g><path d="M884.683 41.7105C884.683 31.4249 893.021 23.0868 903.306 23.0868L1034.13 23.0868C1044.42 23.0868 1052.75 31.4249 1052.75 41.7105L1052.75 116.203C1052.75 126.488 1044.42 134.826 1034.13 134.826L903.306 134.826C893.021 134.826 884.683 126.488 884.683 116.203Z" stroke="#FFFFFF" stroke-width="13.923" stroke-miterlimit="8" fill="none" fill-rule="evenodd" transform="matrix(1 0 0 1.01068 -555.218 50.2001)"/><path d="M884.683 60.9489 1052.65 60.9493" stroke="#FFFFFF" stroke-width="13.923" stroke-miterlimit="8" fill="none" fill-rule="evenodd" transform="matrix(1 0 0 1.01068 -555.218 50.2001)"/></g></g></g><path d="M0 19.0001C-2.41896e-15 8.50663 8.50663-2.41896e-15 19.0001-4.83793e-15 29.4935-9.67586e-15 38.0002 8.50663 38.0002 19.0001L28.5001 19.0001C28.5001 13.7534 24.2468 9.50004 19.0001 9.50004 13.7534 9.50004 9.50004 13.7534 9.50004 19.0001Z" stroke="#009DBF" stroke-width="4.58333" stroke-miterlimit="8" fill="#009DBF" fill-rule="evenodd" transform="matrix(1 0 0 -1 913.5 481.5)"/><path d="M931.991 299C942.413 299 950.862 307.406 950.862 317.775L950.169 321.191 964.632 326.84C982.797 337.821 994.931 357.695 994.931 380.388L994.931 425.727 1005 443 994.931 443 994.931 443 869.069 443 869.069 443 859 443 869.069 425.727 869.069 380.388C869.069 357.695 881.203 337.821 899.368 326.84L913.815 321.197 913.121 317.775C913.121 307.406 921.569 299 931.991 299Z" stroke="#009DBF" stroke-width="13.75" stroke-miterlimit="8" fill="none" fill-rule="evenodd"/><path d="M582 311.834C582 304.746 587.746 299 594.833 299L647.166 299C654.254 299 660 304.746 660 311.834L660 363.166C660 370.254 654.254 376 647.166 376L594.833 376C587.746 376 582 370.254 582 363.166Z" stroke="#009DBF" stroke-width="13.75" stroke-miterlimit="8" fill="none" fill-rule="evenodd"/><path d="M686 311.834C686 304.746 691.746 299 698.834 299L751.167 299C758.254 299 764 304.746 764 311.834L764 363.166C764 370.254 758.254 376 751.167 376L698.834 376C691.746 376 686 370.254 686 363.166Z" stroke="#009DBF" stroke-width="13.75" stroke-miterlimit="8" fill="none" fill-rule="evenodd"/><path d="M582 416C582 408.82 587.82 403 595 403L647 403C654.18 403 660 408.82 660 416L660 468C660 475.18 654.18 481 647 481L595 481C587.82 481 582 475.18 582 468Z" stroke="#009DBF" stroke-width="13.75" stroke-miterlimit="8" fill="none" fill-rule="evenodd"/><path d="M686 416C686 408.82 691.821 403 699 403L751 403C758.18 403 764 408.82 764 416L764 468C764 475.18 758.18 481 751 481L699 481C691.821 481 686 475.18 686 468Z" stroke="#009DBF" stroke-width="13.75" stroke-miterlimit="8" fill="none" fill-rule="evenodd"/><path d="M1192 331C1215.2 331 1234 344.208 1234 360.5" stroke="#009DBF" stroke-width="13.75" stroke-miterlimit="8" fill="none" fill-rule="evenodd"/><path d="M1194 390C1222.72 390 1246 402.984 1246 419" stroke="#009DBF" stroke-width="13.75" stroke-miterlimit="8" fill="none" fill-rule="evenodd"/><path d="M42.0001 0C65.1961-5.34718e-15 84.0002 13.2075 84.0002 29.4999" stroke="#009DBF" stroke-width="13.75" stroke-miterlimit="8" fill="none" fill-rule="evenodd" transform="matrix(-1 0 0 1 1234 331)"/><path d="M1192 390C1168.8 390 1150 376.793 1150 360.5" stroke="#009DBF" stroke-width="13.75" stroke-miterlimit="8" fill="none" fill-rule="evenodd"/><path d="M1194 448C1165.28 448 1142 435.016 1142 419" stroke="#009DBF" stroke-width="13.75" stroke-miterlimit="8" fill="none" fill-rule="evenodd"/><path d="M52.0001 0C80.7189-3.31016e-15 104 12.9837 104 28.9999" stroke="#009DBF" stroke-width="13.75" stroke-miterlimit="8" fill="none" fill-rule="evenodd" transform="matrix(1 0 0 -1 1142 448)"/><path d="M1194 299 1194 480.89" stroke="#009DBF" stroke-width="13.75" stroke-miterlimit="8" fill="none" fill-rule="evenodd"/><g><g><g><path d="M887.038 41.8215C887.038 31.5086 895.398 23.1483 905.711 23.1483L1036.88 23.1483C1047.2 23.1483 1055.56 31.5086 1055.56 41.8215L1055.56 116.512C1055.56 126.825 1047.2 135.185 1036.88 135.185L905.711 135.185C895.398 135.185 887.038 126.825 887.038 116.512Z" stroke="#009DBF" stroke-width="13.9601" stroke-miterlimit="8" fill="none" fill-rule="evenodd" transform="matrix(1.00286 0 0 1 -560.07 310.333)"/><path d="M887.038 61.1112 1055.45 61.1115" stroke="#009DBF" stroke-width="13.9601" stroke-miterlimit="8" fill="none" fill-rule="evenodd" transform="matrix(1.00286 0 0 1 -560.07 310.333)"/></g></g></g><g><g><g><path d="M884.683 41.7105C884.683 31.4249 893.021 23.0868 903.306 23.0868L1034.13 23.0868C1044.42 23.0868 1052.75 31.4249 1052.75 41.7105L1052.75 116.203C1052.75 126.488 1044.42 134.826 1034.13 134.826L903.306 134.826C893.021 134.826 884.683 126.488 884.683 116.203Z" stroke="#808080" stroke-width="13.9231" stroke-miterlimit="8" fill="none" fill-rule="evenodd" transform="matrix(1 0 0 1.00266 -555.218 570.333)"/><path d="M884.683 60.9489 1052.65 60.9493" stroke="#808080" stroke-width="13.9231" stroke-miterlimit="8" fill="none" fill-rule="evenodd" transform="matrix(1 0 0 1.00266 -555.218 570.333)"/></g></g></g><path d="M402 1247C365.549 1247 336 1244.54 336 1241.5L336 1096.5C336 1093.46 365.549 1091 402 1091" stroke="#808080" stroke-width="13.75" stroke-miterlimit="8" fill="none" fill-rule="evenodd"/><path d="M380 1162.13 480.636 1162.13 480.636 1175.88 380 1175.88ZM443.788 1129.34 491.375 1169 443.787 1208.66C440.87 1211.09 436.535 1210.69 434.104 1207.78 431.674 1204.86 432.068 1200.52 434.985 1198.09L476.235 1163.72 476.235 1174.28 434.985 1139.91C432.068 1137.48 431.674 1133.14 434.105 1130.22 436.535 1127.31 440.871 1126.91 443.788 1129.34Z" fill="#808080"/><path d="M413.5 872.185C392.891 872.185 376.185 888.891 376.185 909.5 376.185 930.109 392.891 946.815 413.5 946.815 434.109 946.815 450.815 930.109 450.815 909.5 450.815 888.891 434.109 872.185 413.5 872.185ZM391.822 819 391.886 819.329C393.024 822.136 394.732 824.767 397.009 827.044 406.117 836.152 420.883 836.152 429.991 827.044 432.268 824.767 433.976 822.136 435.115 819.329L435.178 819 449.812 823.543 462.13 830.229 461.977 830.456C460.797 833.246 460.144 836.314 460.144 839.534 460.144 852.414 470.586 862.856 483.466 862.856 486.687 862.856 489.754 862.203 492.544 861.023L492.771 860.87 499.457 873.188 504 887.822 503.671 887.886C500.864 889.024 498.233 890.732 495.956 893.009 486.848 902.117 486.848 916.884 495.956 925.991 498.233 928.268 500.864 929.976 503.671 931.115L504 931.178 499.457 945.812 492.771 958.13 492.544 957.977C489.754 956.797 486.687 956.144 483.466 956.144 470.586 956.144 460.144 966.586 460.144 979.466 460.144 982.686 460.797 985.754 461.977 988.544L462.13 988.771 449.812 995.458 435.178 1000 435.115 999.671C433.976 996.864 432.268 994.233 429.991 991.956 420.883 982.848 406.117 982.848 397.009 991.956 394.732 994.233 393.024 996.864 391.886 999.671L391.822 1000 377.188 995.458 364.87 988.771 365.023 988.544C366.203 985.754 366.856 982.687 366.856 979.466 366.856 966.586 356.414 956.144 343.534 956.144 340.314 956.144 337.246 956.797 334.456 957.977L334.229 958.13 327.543 945.812 323 931.179 323.329 931.115C326.136 929.976 328.767 928.268 331.044 925.991 340.152 916.884 340.152 902.117 331.044 893.009 328.767 890.732 326.136 889.024 323.329 887.886L323 887.822 327.543 873.188 334.229 860.87 334.456 861.023C337.246 862.203 340.314 862.856 343.534 862.856 356.414 862.856 366.856 852.414 366.856 839.534 366.856 836.314 366.203 833.246 365.023 830.456L364.87 830.229 377.188 823.543Z" stroke="#808080" stroke-width="13.75" stroke-miterlimit="8" fill="none" fill-rule="evenodd"/></g></svg>