<svg width="196" height="196" xmlns="http://www.w3.org/2000/svg" xmlns:xlink="http://www.w3.org/1999/xlink" xml:space="preserve" overflow="hidden"><g transform="translate(-563 7)"><path d="M570 13.0003C570 5.82042 575.82 0 583 0L635 0C642.18-2.48261e-15 648 5.82042 648 13.0003L648 64.9998C648 72.1796 642.18 78 635 78L583 78C575.82 78 570 72.1796 570 64.9998Z" stroke="#000000" stroke-width="13.75" stroke-miterlimit="8" fill="none" fill-rule="evenodd"/><path d="M674 13.0003C674 5.82042 679.821 0 687 0L739 0C746.18-2.48261e-15 752 5.82042 752 13.0003L752 64.9998C752 72.1796 746.18 78 739 78L687 78C679.821 78 674 72.1796 674 64.9998Z" stroke="#000000" stroke-width="13.75" stroke-miterlimit="8" fill="none" fill-rule="evenodd"/><path d="M570 117C570 109.821 575.82 104 583 104L635 104C642.18 104 648 109.821 648 117L648 169C648 176.18 642.18 182 635 182L583 182C575.82 182 570 176.18 570 169Z" stroke="#000000" stroke-width="13.75" stroke-miterlimit="8" fill="none" fill-rule="evenodd"/><path d="M674 117C674 109.821 679.821 104 687 104L739 104C746.18 104 752 109.821 752 117L752 169C752 176.18 746.18 182 739 182L687 182C679.821 182 674 176.18 674 169Z" stroke="#000000" stroke-width="13.75" stroke-miterlimit="8" fill="none" fill-rule="evenodd"/></g></svg>