<svg width="196" height="196" xmlns="http://www.w3.org/2000/svg" xmlns:xlink="http://www.w3.org/1999/xlink" xml:space="preserve" overflow="hidden"><g transform="translate(-485 -19)"><path d="M492 39.0003C492 31.8205 497.82 26.0001 505 26.0001L557 26.0001C564.18 26.0001 570 31.8205 570 39.0003L570 90.9996C570 98.1794 564.18 104 557 104L505 104C497.82 104 492 98.1794 492 90.9996Z" stroke="#FFFFFF" stroke-width="13.75" stroke-miterlimit="8" fill="none" fill-rule="evenodd"/><path d="M596 39.0003C596 31.8205 601.82 26.0001 609 26.0001L661 26.0001C668.18 26.0001 674 31.8205 674 39.0003L674 90.9996C674 98.1794 668.18 104 661 104L609 104C601.82 104 596 98.1794 596 90.9996Z" stroke="#FFFFFF" stroke-width="13.75" stroke-miterlimit="8" fill="none" fill-rule="evenodd"/><path d="M492 143C492 135.82 497.82 130 505 130L557 130C564.18 130 570 135.82 570 143L570 194.999C570 202.179 564.18 208 557 208L505 208C497.82 208 492 202.179 492 194.999Z" stroke="#FFFFFF" stroke-width="13.75" stroke-miterlimit="8" fill="none" fill-rule="evenodd"/><path d="M596 143C596 135.82 601.82 130 609 130L661 130C668.18 130 674 135.82 674 143L674 194.999C674 202.179 668.18 208 661 208L609 208C601.82 208 596 202.179 596 194.999Z" stroke="#FFFFFF" stroke-width="13.75" stroke-miterlimit="8" fill="none" fill-rule="evenodd"/></g></svg>