<svg width="117" height="189" xmlns="http://www.w3.org/2000/svg" xmlns:xlink="http://www.w3.org/1999/xlink" xml:space="preserve" overflow="hidden"><g transform="translate(-868 0)"><path d="M924.5 32C947.42 32 966 45.2076 966 61.5001" stroke="#000000" stroke-width="13.75" stroke-miterlimit="8" fill="none" fill-rule="evenodd"/><path d="M926.5 91.0001C954.943 91.0001 978 103.984 978 120" stroke="#000000" stroke-width="13.75" stroke-miterlimit="8" fill="none" fill-rule="evenodd"/><path d="M41.4999 0C64.4197-5.2835e-15 82.9998 13.2077 82.9998 29.5001" stroke="#000000" stroke-width="13.75" stroke-miterlimit="8" fill="none" fill-rule="evenodd" transform="matrix(-1 0 0 1 966 32)"/><path d="M924.5 91.0001C901.58 91.0001 883 77.7924 883 61.5" stroke="#000000" stroke-width="13.75" stroke-miterlimit="8" fill="none" fill-rule="evenodd"/><path d="M926.5 149C898.057 149 875 136.016 875 120" stroke="#000000" stroke-width="13.75" stroke-miterlimit="8" fill="none" fill-rule="evenodd"/><path d="M51.5001 0C79.9428-6.55666e-15 103 12.9837 103 28.9999" stroke="#000000" stroke-width="13.75" stroke-miterlimit="8" fill="none" fill-rule="evenodd" transform="matrix(1 0 0 -1 875 149)"/><path d="M926 0 926 181.89" stroke="#000000" stroke-width="13.75" stroke-miterlimit="8" fill="none" fill-rule="evenodd"/></g></svg>