<svg width="172" height="192" xmlns="http://www.w3.org/2000/svg" xmlns:xlink="http://www.w3.org/1999/xlink" xml:space="preserve" overflow="hidden"><g transform="translate(-730 -19)"><path d="M0 19.0001C-2.41896e-15 8.50663 8.50663-2.41896e-15 19.0001-4.83793e-15 29.4935-9.67586e-15 38.0002 8.50663 38.0002 19.0001L28.5001 19.0001C28.5001 13.7534 24.2468 9.50004 19.0001 9.50004 13.7534 9.50004 9.50004 13.7534 9.50004 19.0001Z" stroke="#FFFFFF" stroke-width="4.58333" stroke-miterlimit="8" fill="#FFFFFF" fill-rule="evenodd" transform="matrix(1 0 0 -1 797.5 208.5)"/><path d="M815.991 26.0001C826.413 26.0001 834.862 34.4058 834.862 44.7751L834.169 48.1906 848.632 53.84C866.797 64.8215 878.931 84.695 878.931 107.388L878.931 152.728 889 170 878.931 170 878.931 170 753.069 170 753.069 170 743 170 753.069 152.728 753.069 107.388C753.069 84.695 765.203 64.8215 783.368 53.84L797.815 48.1969 797.121 44.7751C797.121 34.4058 805.569 26.0001 815.991 26.0001Z" stroke="#FFFFFF" stroke-width="13.75" stroke-miterlimit="8" fill="none" fill-rule="evenodd"/></g></svg>