<svg width="172" height="189" xmlns="http://www.w3.org/2000/svg" xmlns:xlink="http://www.w3.org/1999/xlink" xml:space="preserve" overflow="hidden"><g transform="translate(-290 7)"><path d="M0 18.9999C-2.41894e-15 8.50655 8.50655-2.41894e-15 18.9999-4.83788e-15 29.4933-9.67576e-15 37.9998 8.50655 37.9998 18.9999L28.4999 18.9999C28.4999 13.7532 24.2466 9.49995 18.9999 9.49995 13.7532 9.49995 9.49995 13.7532 9.49995 18.9999Z" fill-rule="evenodd" transform="matrix(1 0 0 -1 357 182)"/><path d="M375.991 0C386.413 0 394.862 8.40571 394.862 18.775L394.169 22.1905 408.632 27.8399C426.797 38.8214 438.931 58.6949 438.931 81.3877L438.931 126.727 449 144 438.931 144 438.931 144 313.069 144 313.069 144 303 144 313.069 126.727 313.069 81.3877C313.069 58.6949 325.203 38.8214 343.368 27.8399L357.815 22.1968 357.121 18.775C357.121 8.40571 365.569 0 375.991 0Z" stroke="#000000" stroke-width="13.75" stroke-miterlimit="8" fill="none" fill-rule="evenodd"/></g></svg>