<svg width="172" height="196" xmlns="http://www.w3.org/2000/svg" xmlns:xlink="http://www.w3.org/1999/xlink" xml:space="preserve" overflow="hidden"><g transform="translate(-2231 -32)"><path d="M0 18.4999C-2.41894e-15 8.28269 8.50655-7.25683e-15 18.9999-9.67577e-15 29.4933-1.20947e-14 37.9998 8.28269 37.9998 18.4999L28.7499 18.4999C28.7499 13.3913 24.3847 9.24995 18.9999 9.24995 13.6151 9.24995 9.24994 13.3913 9.24994 18.4999Z" stroke="#808080" stroke-width="4.58333" stroke-miterlimit="8" fill="#808080" fill-rule="evenodd" transform="matrix(1 0 0 -1 2298.5 220.5)"/><path d="M2316.99 38.9998C2327.41 38.9998 2335.86 47.4055 2335.86 57.7748L2335.17 61.1903 2349.63 66.8397C2367.8 77.8212 2379.93 97.6947 2379.93 120.388L2379.93 165.727 2390 183 2379.93 183 2379.93 183 2254.07 183 2254.07 183 2244 183 2254.07 165.727 2254.07 120.388C2254.07 97.6947 2266.2 77.8212 2284.37 66.8397L2298.81 61.1966 2298.12 57.7748C2298.12 47.4055 2306.57 38.9998 2316.99 38.9998Z" stroke="#808080" stroke-width="13.75" stroke-miterlimit="8" fill="none" fill-rule="evenodd"/><path d="M2250 38.9998 2379.92 220.89" stroke="#808080" stroke-width="13.75" stroke-miterlimit="8" fill="none" fill-rule="evenodd"/></g></svg>