<svg width="172" height="192" xmlns="http://www.w3.org/2000/svg" xmlns:xlink="http://www.w3.org/1999/xlink" xml:space="preserve" overflow="hidden"><g transform="translate(-848 -1071)"><path d="M0 19.0001C-2.41896e-15 8.50663 8.50663-2.41896e-15 19.0001-4.83793e-15 29.4935-9.67586e-15 38.0002 8.50663 38.0002 19.0001L28.5001 19.0001C28.5001 13.7534 24.2468 9.50004 19.0001 9.50004 13.7534 9.50004 9.50004 13.7534 9.50004 19.0001Z" stroke="#808080" stroke-width="4.58333" stroke-miterlimit="8" fill="#808080" fill-rule="evenodd" transform="matrix(1 0 0 -1 915.5 1260.5)"/><path d="M933.991 1078C944.413 1078 952.862 1086.41 952.862 1096.78L952.169 1100.19 966.632 1105.84C984.797 1116.82 996.931 1136.69 996.931 1159.39L996.931 1204.73 1007 1222 996.931 1222 996.931 1222 871.069 1222 871.069 1222 861 1222 871.069 1204.73 871.069 1159.39C871.069 1136.69 883.203 1116.82 901.368 1105.84L915.815 1100.2 915.121 1096.78C915.121 1086.41 923.569 1078 933.991 1078Z" stroke="#808080" stroke-width="13.75" stroke-miterlimit="8" fill="none" fill-rule="evenodd"/></g></svg>