<svg width="922" height="196" xmlns="http://www.w3.org/2000/svg" xmlns:xlink="http://www.w3.org/1999/xlink" xml:space="preserve" overflow="hidden"><g transform="translate(-356 -292)"><path d="M0 18.5001C-2.35531e-15 8.28276 8.28269-2.35531e-15 18.4999-4.71061e-15 28.7171-9.42122e-15 36.9998 8.28276 36.9998 18.5001L27.7498 18.5001C27.7498 13.3914 23.6085 9.24995 18.4999 9.24995 13.3913 9.24995 9.24991 13.3914 9.24991 18.5001Z" stroke="#009DBF" stroke-width="4.58333" stroke-miterlimit="8" fill="#009DBF" fill-rule="evenodd" transform="matrix(1 0 0 -1 1174.5 480.5)"/><path d="M1192.49 299C1202.84 299 1211.23 307.406 1211.23 317.775L1210.54 321.191 1224.91 326.84C1242.95 337.821 1255 357.695 1255 380.388L1255 425.727 1265 443 1255 443 1255 443 1130 443 1130 443 1120 443 1130 425.727 1130 380.388C1130 357.695 1142.05 337.821 1160.09 326.84L1174.44 321.197 1173.75 317.775C1173.75 307.406 1182.14 299 1192.49 299Z" stroke="#009DBF" stroke-width="13.75" stroke-miterlimit="8" fill="none" fill-rule="evenodd"/><path d="M843 311.834C843 304.746 848.746 299 855.833 299L908.166 299C915.254 299 921 304.746 921 311.834L921 363.166C921 370.254 915.254 376 908.166 376L855.833 376C848.746 376 843 370.254 843 363.166Z" stroke="#009DBF" stroke-width="13.75" stroke-miterlimit="8" fill="none" fill-rule="evenodd"/><path d="M947 311.834C947 304.746 952.746 299 959.834 299L1012.17 299C1019.25 299 1025 304.746 1025 311.834L1025 363.166C1025 370.254 1019.25 376 1012.17 376L959.834 376C952.746 376 947 370.254 947 363.166Z" stroke="#009DBF" stroke-width="13.75" stroke-miterlimit="8" fill="none" fill-rule="evenodd"/><path d="M843 415.833C843 408.746 848.746 403 855.833 403L908.166 403C915.254 403 921 408.746 921 415.833L921 467.166C921 474.254 915.254 480 908.166 480L855.833 480C848.746 480 843 474.254 843 467.166Z" stroke="#009DBF" stroke-width="13.75" stroke-miterlimit="8" fill="none" fill-rule="evenodd"/><path d="M947 415.833C947 408.746 952.746 403 959.834 403L1012.17 403C1019.25 403 1025 408.746 1025 415.833L1025 467.166C1025 474.254 1019.25 480 1012.17 480L959.834 480C952.746 480 947 474.254 947 467.166Z" stroke="#009DBF" stroke-width="13.75" stroke-miterlimit="8" fill="none" fill-rule="evenodd"/><path d="M413 331C436.196 331 455 344.208 455 360.5" stroke="#009DBF" stroke-width="13.75" stroke-miterlimit="8" fill="none" fill-rule="evenodd"/><path d="M414.5 390C442.943 390 466 402.984 466 419" stroke="#009DBF" stroke-width="13.75" stroke-miterlimit="8" fill="none" fill-rule="evenodd"/><path d="M42.0001 0C65.1961-1.06944e-14 84.0002 13.2076 84.0002 29.5001" stroke="#009DBF" stroke-width="13.75" stroke-miterlimit="8" fill="none" fill-rule="evenodd" transform="matrix(-1 0 0 1 455 331)"/><path d="M413 390C389.804 390 371 376.793 371 360.5" stroke="#009DBF" stroke-width="13.75" stroke-miterlimit="8" fill="none" fill-rule="evenodd"/><path d="M414.5 448C386.057 448 363 435.016 363 419" stroke="#009DBF" stroke-width="13.75" stroke-miterlimit="8" fill="none" fill-rule="evenodd"/><path d="M51.5001 0C79.9428-3.27833e-15 103 12.9838 103 29.0002" stroke="#009DBF" stroke-width="13.75" stroke-miterlimit="8" fill="none" fill-rule="evenodd" transform="matrix(1 0 0 -1 363 448)"/><path d="M414 299 414 480.89" stroke="#009DBF" stroke-width="13.75" stroke-miterlimit="8" fill="none" fill-rule="evenodd"/><g><g><g><path d="M887.038 41.8215C887.038 31.5086 895.398 23.1483 905.711 23.1483L1036.88 23.1483C1047.2 23.1483 1055.56 31.5086 1055.56 41.8215L1055.56 116.512C1055.56 126.825 1047.2 135.185 1036.88 135.185L905.711 135.185C895.398 135.185 887.038 126.825 887.038 116.512Z" stroke="#009DBF" stroke-width="13.9601" stroke-miterlimit="8" fill="none" fill-rule="evenodd" transform="matrix(1.00286 0 0 1 -300.071 310.333)"/><path d="M887.038 61.1112 1055.45 61.1115" stroke="#009DBF" stroke-width="13.9601" stroke-miterlimit="8" fill="none" fill-rule="evenodd" transform="matrix(1.00286 0 0 1 -300.071 310.333)"/></g></g></g></g></svg>