<svg width="235" height="667" xmlns="http://www.w3.org/2000/svg" xmlns:xlink="http://www.w3.org/1999/xlink" xml:space="preserve" overflow="hidden"><g transform="translate(-314 -327)"><g><g><g><path d="M887.038 41.8215C887.038 31.5086 895.398 23.1483 905.711 23.1483L1036.88 23.1483C1047.2 23.1483 1055.56 31.5086 1055.56 41.8215L1055.56 116.512C1055.56 126.825 1047.2 135.185 1036.88 135.185L905.711 135.185C895.398 135.185 887.038 126.825 887.038 116.512Z" stroke="#009DBF" stroke-width="13.9601" stroke-miterlimit="8" fill="none" fill-rule="evenodd" transform="matrix(1.00286 0 0 1 -560.07 310.333)"/><path d="M887.038 61.1112 1055.45 61.1115" stroke="#009DBF" stroke-width="13.9601" stroke-miterlimit="8" fill="none" fill-rule="evenodd" transform="matrix(1.00286 0 0 1 -560.07 310.333)"/></g></g></g><path d="M402 987C365.549 987 336 984.538 336 981.5L336 836.5C336 833.462 365.549 831 402 831" stroke="#009DBF" stroke-width="13.75" stroke-miterlimit="8" fill="none" fill-rule="evenodd"/><path d="M380 902.125 480.636 902.125 480.636 915.875 380 915.875ZM443.788 869.344 491.375 909 443.787 948.657C440.87 951.087 436.535 950.693 434.104 947.776 431.674 944.859 432.068 940.524 434.985 938.094L476.235 903.719 476.235 914.282 434.985 879.907C432.068 877.476 431.674 873.141 434.105 870.224 436.535 867.307 440.871 866.913 443.788 869.344Z" fill="#009DBF"/><path d="M413.5 612.478C392.891 612.478 376.185 629.277 376.185 650 376.185 670.723 392.891 687.522 413.5 687.522 434.109 687.522 450.815 670.723 450.815 650 450.815 629.277 434.109 612.478 413.5 612.478ZM391.822 559 391.886 559.33C393.024 562.153 394.732 564.799 397.009 567.088 406.117 576.246 420.883 576.246 429.991 567.088 432.268 564.799 433.976 562.153 435.115 559.331L435.178 559 449.812 563.568 462.13 570.291 461.977 570.519C460.797 573.324 460.144 576.409 460.144 579.647 460.144 592.599 470.586 603.098 483.466 603.098 486.687 603.098 489.754 602.442 492.544 601.255L492.771 601.101 499.457 613.487 504 628.202 503.671 628.266C500.864 629.411 498.233 631.128 495.956 633.418 486.848 642.576 486.848 657.424 495.956 666.582 498.233 668.872 500.864 670.589 503.671 671.734L504 671.798 499.457 686.513 492.771 698.899 492.544 698.745C489.754 697.558 486.687 696.902 483.466 696.902 470.586 696.902 460.144 707.401 460.144 720.353 460.144 723.591 460.797 726.676 461.977 729.481L462.13 729.71 449.812 736.433 435.178 741 435.115 740.669C433.976 737.847 432.268 735.201 429.991 732.912 420.883 723.754 406.117 723.754 397.009 732.912 394.732 735.201 393.024 737.847 391.886 740.67L391.822 741 377.188 736.433 364.87 729.71 365.023 729.481C366.203 726.676 366.856 723.591 366.856 720.353 366.856 707.401 356.414 696.902 343.534 696.902 340.314 696.902 337.246 697.558 334.456 698.745L334.229 698.899 327.543 686.513 323 671.798 323.329 671.734C326.136 670.589 328.767 668.872 331.044 666.582 340.152 657.424 340.152 642.576 331.044 633.418 328.767 631.128 326.136 629.411 323.329 628.266L323 628.202 327.543 613.487 334.229 601.101 334.456 601.255C337.246 602.442 340.314 603.098 343.534 603.098 356.414 603.098 366.856 592.599 366.856 579.647 366.856 576.409 366.203 573.324 365.023 570.519L364.87 570.291 377.188 563.568Z" stroke="#009DBF" stroke-width="13.75" stroke-miterlimit="8" fill="none" fill-rule="evenodd"/></g></svg>