<svg width="235" height="667" xmlns="http://www.w3.org/2000/svg" xmlns:xlink="http://www.w3.org/1999/xlink" xml:space="preserve" overflow="hidden"><g transform="translate(-314 -587)"><g><g><g><path d="M884.683 41.7105C884.683 31.4249 893.021 23.0868 903.306 23.0868L1034.13 23.0868C1044.42 23.0868 1052.75 31.4249 1052.75 41.7105L1052.75 116.203C1052.75 126.488 1044.42 134.826 1034.13 134.826L903.306 134.826C893.021 134.826 884.683 126.488 884.683 116.203Z" stroke="#808080" stroke-width="13.923" stroke-miterlimit="8" fill="none" fill-rule="evenodd" transform="matrix(1 0 0 1.00266 -555.218 570.333)"/><path d="M884.683 60.9489 1052.65 60.9493" stroke="#808080" stroke-width="13.923" stroke-miterlimit="8" fill="none" fill-rule="evenodd" transform="matrix(1 0 0 1.00266 -555.218 570.333)"/></g></g></g><path d="M402 1247C365.549 1247 336 1244.54 336 1241.5L336 1096.5C336 1093.46 365.549 1091 402 1091" stroke="#808080" stroke-width="13.75" stroke-miterlimit="8" fill="none" fill-rule="evenodd"/><path d="M380 1162.13 480.636 1162.13 480.636 1175.88 380 1175.88ZM443.788 1129.34 491.375 1169 443.787 1208.66C440.87 1211.09 436.535 1210.69 434.104 1207.78 431.674 1204.86 432.068 1200.52 434.985 1198.09L476.235 1163.72 476.235 1174.28 434.985 1139.91C432.068 1137.48 431.674 1133.14 434.105 1130.22 436.535 1127.31 440.871 1126.91 443.788 1129.34Z" fill="#808080"/><path d="M413.5 872.185C392.891 872.185 376.185 888.891 376.185 909.5 376.185 930.109 392.891 946.815 413.5 946.815 434.109 946.815 450.815 930.109 450.815 909.5 450.815 888.891 434.109 872.185 413.5 872.185ZM391.822 819 391.886 819.329C393.024 822.136 394.732 824.767 397.009 827.044 406.117 836.152 420.883 836.152 429.991 827.044 432.268 824.767 433.976 822.136 435.115 819.329L435.178 819 449.812 823.543 462.13 830.229 461.977 830.456C460.797 833.246 460.144 836.314 460.144 839.534 460.144 852.414 470.586 862.856 483.466 862.856 486.687 862.856 489.754 862.203 492.544 861.023L492.771 860.87 499.457 873.188 504 887.822 503.671 887.886C500.864 889.024 498.233 890.732 495.956 893.009 486.848 902.117 486.848 916.884 495.956 925.991 498.233 928.268 500.864 929.976 503.671 931.115L504 931.178 499.457 945.812 492.771 958.13 492.544 957.977C489.754 956.797 486.687 956.144 483.466 956.144 470.586 956.144 460.144 966.586 460.144 979.466 460.144 982.686 460.797 985.754 461.977 988.544L462.13 988.771 449.812 995.458 435.178 1000 435.115 999.671C433.976 996.864 432.268 994.233 429.991 991.956 420.883 982.848 406.117 982.848 397.009 991.956 394.732 994.233 393.024 996.864 391.886 999.671L391.822 1000 377.188 995.458 364.87 988.771 365.023 988.544C366.203 985.754 366.856 982.687 366.856 979.466 366.856 966.586 356.414 956.144 343.534 956.144 340.314 956.144 337.246 956.797 334.456 957.977L334.229 958.13 327.543 945.812 323 931.179 323.329 931.115C326.136 929.976 328.767 928.268 331.044 925.991 340.152 916.884 340.152 902.117 331.044 893.009 328.767 890.732 326.136 889.024 323.329 887.886L323 887.822 327.543 873.188 334.229 860.87 334.456 861.023C337.246 862.203 340.314 862.856 343.534 862.856 356.414 862.856 366.856 852.414 366.856 839.534 366.856 836.314 366.203 833.246 365.023 830.456L364.87 830.229 377.188 823.543Z" stroke="#808080" stroke-width="13.75" stroke-miterlimit="8" fill="none" fill-rule="evenodd"/></g></svg>